<svg xmlns="http://www.w3.org/2000/svg" version="1.1" xmlns:xlink="http://www.w3.org/1999/xlink" xmlns:svgjs="http://svgjs.dev/svgjs" width="1000" height="242" viewBox="0 0 1000 242"><g transform="matrix(1,0,0,1,-0.6060606060606233,-0.5903790412509125)"><svg viewBox="0 0 396 96" data-background-color="#ffffff" preserveAspectRatio="xMidYMid meet" height="242" width="1000" xmlns="http://www.w3.org/2000/svg" xmlns:xlink="http://www.w3.org/1999/xlink"><defs></defs><g id="tight-bounds" transform="matrix(1,0,0,1,0.2400000000000091,0.23419995024829632)"><svg viewBox="0 0 395.52 95.5316000995034" height="95.5316000995034" width="395.52"><g><svg viewBox="0 0 654.8401952713648 158.16629162556822" height="95.5316000995034" width="395.52"><g transform="matrix(1,0,0,1,259.3201952713648,47.549158301633355)"><svg viewBox="0 0 395.52 63.06797502230152" height="63.06797502230152" width="395.52"><g><svg viewBox="0 0 395.52 63.06797502230152" height="63.06797502230152" width="395.52"><g><svg viewBox="0 0 395.52 63.06797502230152" height="63.06797502230152" width="395.52"><g transform="matrix(1,0,0,1,0,0)"><svg width="395.52" viewBox="1.8 -35.5 224.17999999999998 35.75" height="63.06797502230152" data-palette-color="#202046"><path d="M35.05-35L35.05 0 27.8 0 27.8-21.7 21.55-8.2 15.25-8.2 9-21.65 9 0 1.8 0 1.8-35 9.5-35 18.45-16.25 27.8-35 35.05-35ZM61.25-5.75L61.25 0 40.4 0 40.4-35 61.25-35 61.25-29.25 47.65-29.25 47.65-21.9 60-21.9 60-16.05 47.65-16.05 47.65-5.75 61.25-5.75ZM99-35L99 0 91.75 0 91.75-21.7 85.5-8.2 79.2-8.2 72.95-21.65 72.95 0 65.75 0 65.75-35 73.45-35 82.4-16.25 91.75-35 99-35ZM116.94 0.25L116.94 0.25Q109.59 0.25 105.84-4.83 102.09-9.9 102.09-17.75 102.09-25.6 105.87-30.55 109.64-35.5 116.97-35.5 124.29-35.5 128.09-30.55 131.89-25.6 131.89-17.75L131.89-17.75Q131.89-7 125.34-2.25L125.34-2.25Q121.89 0.25 116.94 0.25ZM117.04-29.75L117.04-29.75Q114.39-29.75 112.59-27.9L112.59-27.9Q109.39-24.7 109.39-17.75L109.39-17.75Q109.39-12.5 111.34-9.03 113.29-5.55 117.07-5.55 120.84-5.55 122.74-9.08 124.64-12.6 124.64-17.68 124.64-22.75 122.62-26.25 120.59-29.75 117.04-29.75ZM144.59-15.2L144.59-15.2 143.99-15.2 143.99-0.05 136.74-0.05 136.74-35.05 147.84-35.05Q153.49-35.05 156.29-32.58 159.09-30.1 159.09-25.5L159.09-25.5Q159.09-22.7 157.14-20.38 155.19-18.05 152.39-17.7L152.39-17.7Q154.39-17.15 155.49-15.88 156.59-14.6 157.79-11.75L157.79-11.75 162.74-0.05 155.29-0.05 150.44-11.25Q149.39-13.65 148.22-14.43 147.04-15.2 144.59-15.2ZM147.64-29.35L147.64-29.35 143.99-29.35 143.99-20.9 147.14-20.9Q149.14-20.9 150.27-22.2 151.39-23.5 151.39-25.4L151.39-25.4Q151.39-29.35 147.64-29.35ZM173.39-35L173.39 0 166.14 0 166.14-35 173.39-35ZM201.14-5.8L201.14 0 177.19 0 177.19-5.6 191.69-29.25 177.14-29.25 177.14-35 199.59-35 199.59-29.65 185.24-5.8 201.14-5.8ZM225.98-5.75L225.98 0 205.13 0 205.13-35 225.98-35 225.98-29.25 212.38-29.25 212.38-21.9 224.73-21.9 224.73-16.05 212.38-16.05 212.38-5.75 225.98-5.75Z" opacity="1" transform="matrix(1,0,0,1,0,0)" fill="#202046" class="undefined-text-0" data-fill-palette-color="primary" id="text-0"></path></svg></g></svg></g></svg></g></svg></g><g><svg viewBox="0 0 244.43135999999996 158.16629162556822" height="158.16629162556822" width="244.43135999999996"><g><svg xmlns="http://www.w3.org/2000/svg" xmlns:xlink="http://www.w3.org/1999/xlink" version="1.1" x="0" y="0" viewBox="0 0.00036385958238720206 100.00120615453926 64.70863614041761" enable-background="new 0 0 100.001 64.709" xml:space="preserve" width="244.43135999999996" height="158.16629162556822" class="icon-icon-0" data-fill-palette-color="accent" id="icon-0"><g fill="#fe633d" data-fill-palette-color="accent"><path d="M33.881 30.267c-9.948-4.121-18.685-4.492-26.707-1.159L6.68 27.891c8.359-3.463 17.436-3.079 27.709 1.166L33.881 30.267z" fill="#fe633d" data-fill-palette-color="accent"></path></g><g fill="#fe633d" data-fill-palette-color="accent"><path d="M34.389 37.013c-10.261-4.239-19.35-4.623-27.709-1.166l0.495 1.211c8.047-3.32 16.771-2.942 26.707 1.166L34.389 37.013z" fill="#fe633d" data-fill-palette-color="accent"></path></g><g fill="#fe633d" data-fill-palette-color="accent"><path d="M34.389 21.1c-10.261-4.238-19.35-4.623-27.709-1.172l0.495 1.218c8.047-3.327 16.771-2.95 26.707 1.166L34.389 21.1z" fill="#fe633d" data-fill-palette-color="accent"></path></g><path d="M78.648 36.798v22.006C60.184 47.11 44.22 57.82 44.22 59.649V20.684c0-6.921 9.154-10.658 20.431-10.658 3.112 0 6.028 0.469 8.659 1.23l3.802-3.802c-18.894-5.782-33.399 2.76-35.392 4.603C38.868 9.296 22.461-0.268 0 9.485c0 0.15 0 2.845 0 6.966v46.532h34.128c1.172 1.009 3.945 1.726 7.188 1.726 3.242 0 6.016-0.717 7.201-1.726h34.116V32.807L78.648 36.798zM38.673 59.649c0-1.829-15.977-12.539-34.415-0.846V13.431c3.646-2.109 8.568-3.405 13.985-3.405 11.276 0 20.43 3.737 20.43 10.658V59.649z" fill="#fe633d" data-fill-palette-color="accent"></path><path d="M46.811 29.056l0.495 1.211c3.919-1.627 7.956-2.506 11.927-2.975l0.573-1.38C55.483 26.348 51.082 27.292 46.811 29.056z" fill="#fe633d" data-fill-palette-color="accent"></path><path d="M46.811 37.013l0.495 1.211c2.799-1.152 5.651-1.947 8.516-2.514l0.56-1.394C53.179 34.896 49.949 35.717 46.811 37.013z" fill="#fe633d" data-fill-palette-color="accent"></path><path d="M46.811 21.1l0.495 1.211c6.016-2.487 12.292-3.47 18.177-3.223l1.237-1.237C60.314 17.396 53.4 18.373 46.811 21.1z" fill="#fe633d" data-fill-palette-color="accent"></path><path d="M99.417 8.118l-7.526-7.526c-1.028-1.042-3.099-0.67-4.583 0.82l-24.22 24.226-2.553 6.23c-0.572 1.413-1.38 3.438-2.083 5.15-0.195 0.476-0.417 1.022-0.586 1.406l-1.185 2.949c-0.742 1.811 0.143 2.683 1.939 1.96l2.956-1.211c0.378-0.156 0.938-0.378 1.406-0.573 1.719-0.689 3.725-1.517 5.156-2.083l6.225-2.546 24.232-24.226C100.081 11.21 100.446 9.153 99.417 8.118zM67.385 37.579l-3.919 1.595-2.631-2.637 0.781-1.928 0.808-1.972 1.38-3.412 6.967 6.973L67.385 37.579z" fill="#fe633d" data-fill-palette-color="accent"></path></svg><g></g></g></svg></g></svg></g></svg><rect width="395.52" height="95.5316000995034" fill="none" stroke="none" visibility="hidden"></rect></g></svg></g></svg>